<svg xmlns="http://www.w3.org/2000/svg" fill="none" viewBox="0 0 24 24"><path fill="#ff007e" fill-rule="evenodd" d="M3.788 3H3.75a.75.75 0 0 0-.75.75v1.768c0 8.55 6.933 15.48 15.483 15.48h1.767a.75.75 0 0 0 .75-.789v-3.57a.75.75 0 0 0-.48-.699l-4.25-1.64a.75.75 0 0 0-.745.12l-3.963 3.248a14.05 14.05 0 0 1-5.232-5.231l3.25-3.961a.75.75 0 0 0 .12-.746L8.058 3.48a.75.75 0 0 0-.7-.48zM5.6 10.963l2.543-3.1-1.299-3.361H4.5v1.017c0 1.93.392 3.77 1.1 5.444m12.883 8.536c-1.932 0-3.772-.392-5.445-1.1l3.1-2.541 3.361 1.297v2.344z" clip-rule="evenodd"/></svg>