<svg xmlns="http://www.w3.org/2000/svg" fill="none" viewBox="-1 0 24 24"><g fill="#ff007e" clip-path="url(#a)"><path fill-rule="evenodd" d="M1.906 7.455a4.545 4.545 0 0 1 4.546-4.546h9.09a4.545 4.545 0 0 1 4.546 4.546v9.09a4.545 4.545 0 0 1-4.545 4.546H6.452a4.545 4.545 0 0 1-4.546-4.546zm4.546-2.728a2.727 2.727 0 0 0-2.728 2.728v9.09a2.727 2.727 0 0 0 2.728 2.728h9.09a2.727 2.727 0 0 0 2.728-2.727V7.455a2.727 2.727 0 0 0-2.727-2.728z" clip-rule="evenodd"/><path fill-rule="evenodd" d="M10.999 9.273a2.727 2.727 0 1 0 0 5.454 2.727 2.727 0 0 0 0-5.454M6.453 12a4.545 4.545 0 1 1 9.091 0 4.545 4.545 0 0 1-9.09 0" clip-rule="evenodd"/><path d="M16.455 7.455a.91.91 0 1 1-1.818 0 .91.91 0 0 1 1.818 0"/></g><defs><clipPath id="a"><path fill="#fff" d="M1 2h20v20H1z"/></clipPath></defs></svg>