<svg xmlns="http://www.w3.org/2000/svg" fill="none" viewBox="-2.5 0 24 23"><path fill="#ff007e" d="m13.232 1.694.338 2.336h4.566a.863.863 0 1 1 0 1.728h-.885l-1.005 11.728c-.061.714-.111 1.301-.19 1.775-.081.494-.204.937-.445 1.347a3.74 3.74 0 0 1-1.613 1.482c-.428.203-.88.287-1.38.326-.48.038-1.068.038-1.784.038H8.167c-.717 0-1.305 0-1.785-.038-.5-.039-.951-.123-1.38-.326a3.74 3.74 0 0 1-1.613-1.482c-.242-.41-.363-.853-.445-1.347-.079-.475-.129-1.061-.19-1.775L1.75 5.758H.864a.864.864 0 1 1 0-1.728H5.43l.337-2.336.013-.07C5.99.714 6.77 0 7.75 0h3.5c.98 0 1.76.714 1.97 1.624zM7.175 4.03h4.649l-.295-2.045c-.055-.192-.196-.258-.28-.258H7.751c-.084 0-.225.066-.28.258zM8.636 9.5a.864.864 0 1 0-1.727 0v5.758a.864.864 0 0 0 1.727 0zm3.455 0a.864.864 0 0 0-1.727 0v5.758a.864.864 0 0 0 1.727 0z"/></svg>