<svg xmlns="http://www.w3.org/2000/svg" fill="none" viewBox="0 0 679 81"><path fill="#a0a1a6" fill-opacity=".16" d="m12.985 61-.783-17.237L53.279 1.12H69.62L35.482 37.384l-8.058 8.842zM.002 79.468V1.119h14.55v78.349zm54.62 0L24.626 43.763 34.25 33.13l37.384 46.338zm28.263 0V1.119h14.55v78.349zm37.086 0V1.119h11.976l34.249 57.195h-6.267l33.69-57.195h11.976l.112 78.349H191.94l-.112-56.747h2.91l-28.653 47.793h-6.492L130.492 22.72h3.358v56.747zm144.506 1.12q-8.953 0-16.677-2.91-7.611-3.024-13.319-8.395-5.596-5.485-8.731-12.872t-3.134-16.117q0-8.73 3.134-16.118t8.843-12.76q5.708-5.484 13.319-8.394Q255.523 0 264.589 0q9.626 0 17.573 3.358 7.945 3.246 13.431 9.737l-9.402 8.843q-4.254-4.59-9.514-6.828-5.26-2.35-11.416-2.35t-11.305 2.014q-5.037 2.015-8.842 5.709-3.694 3.693-5.821 8.73-2.014 5.037-2.014 11.08 0 6.045 2.014 11.081 2.127 5.037 5.821 8.73 3.805 3.694 8.842 5.709 5.149 2.015 11.305 2.015t11.416-2.239q5.26-2.35 9.514-7.051l9.402 8.954q-5.486 6.38-13.431 9.737-7.947 3.358-17.685 3.358m46.401-1.12V1.119h14.55v66.037h40.966v12.312zm81.777-45.778h38.951v11.976h-38.951zm1.12 33.578h44.211v12.2h-58.762V1.119h57.195v12.2h-42.644zm83.85 12.2L443.376 1.119h15.781l30.556 70.85h-9.066l30.892-70.85h14.551l-34.138 78.349zm71.507-45.778h38.95v11.976h-38.95zm1.119 33.578h44.211v12.2H535.7V1.119h57.195v12.2h-42.644zm61.775 12.2V1.119h32.235q10.409 0 17.796 3.358 7.5 3.358 11.529 9.626t4.029 14.886-4.029 14.886q-4.03 6.157-11.529 9.514-7.387 3.246-17.796 3.246h-24.176l6.491-6.604v29.437zm51.262 0-19.811-28.43h15.558l19.923 28.43zm-36.712-27.87-6.491-6.94h23.504q9.625 0 14.439-4.14 4.925-4.142 4.925-11.529 0-7.5-4.925-11.529-4.813-4.029-14.439-4.029h-23.504l6.491-7.163z"/></svg>