<svg xmlns="http://www.w3.org/2000/svg" fill="none" viewBox="0 0 154 73"><path fill="#2b2a29" d="M53.929 29.255c1.216-2.484 1.523-5.614 1.696-7.475-4.025 2.306-5.86 4.147-6.42 7.293-.34 1.913.452 4.35 1.336 5.825.866-.774 2.467-3.763 3.388-5.643M50.24 17.394c1.545-1.546 3.93-2.742 4.914-3.894-3.685-.415-9.154.06-11.775 2.75 2.468 3.414 1.752 2.15 3.308 6.053 1.148-2.291 1.761-3.119 3.552-4.909M51.81 36.42c-.54 2.388-.603 5.309-.524 7.196.278-.658.887-1.888 2.138-3.366 1.739-2.055 2.367-2.212 2.826-3.446.756-2.026.456-7.466.031-9.155-.188 1.963-1.811 4.34-3.208 6.13a6.7 6.7 0 0 0-1.264 2.642M43.266 60.45c-4.556 3.933-15.06 9.765-20.696 12.139 2.449.336 5.553.243 10.893-1.242 1.734-.483 5.788-1.797 7.15-3.906.025.801.044 1.316.07 1.725 6.324-2.47 6.943-4.393 7.875-6.316.065.198.733 1.496.798 1.632a35 35 0 0 0 1.431-1.166c6.036-5.23 1.84-14.742.014-19.021-.168 4.069-.73 10.28-7.535 16.155"/><path fill="#2b2a29" d="M42.62 52.529c-7.08 4.218-8.652 9.281-8.651 11.515 4.541-4.879 5.612-3.568 9.506-6.484 2.362-1.77 5.827-7.188 5.114-10.601-.883 1.557-2.393 3.474-5.97 5.57M64.276 24.788c-2.02 1.358-4.246 3.976-4.569 7.473 5.611 2.362 13.514 1.297 18.837.04l-1.306-1.304c3.992-.566 6.165-2.997 8.553-6.039l-1.565-.568c2.708-1.033 4.866-2.708 5.735-5.618-2.96 1.07-5.884 2.064-8.122 2.36-7.874 1.043-12.85.489-17.563 3.656"/><path fill="#2b2a29" d="M79.708 10.583c-3.962.794-8.126 2.413-10.94 4.018-2.96 1.687-9.152 5.03-9.26 12.509.606-.904 2.396-5.305 10.24-6.498 6.164-.938 13.52-.755 18.6-3.511 6.49-3.52 10.177-7.335 13.461-17.101-6.118 5.894-15.269 9.213-22.101 10.583M24.573 30.997 23.268 32.3c5.325 1.257 13.226 2.322 18.837-.04-.323-3.498-2.547-6.115-4.569-7.473-4.713-3.167-9.69-2.613-17.562-3.657-2.238-.295-5.162-1.289-8.122-2.36.87 2.91 3.028 4.586 5.735 5.619l-1.566.568c2.389 3.041 4.562 5.472 8.552 6.039"/><path fill="#2b2a29" d="M32.063 20.612c7.842 1.193 9.634 5.594 10.239 6.498-.109-7.478-6.3-10.823-9.258-12.51-2.816-1.604-6.98-3.223-10.942-4.017C15.27 9.213 6.12 5.893 0 0 3.285 9.766 6.971 13.58 13.461 17.1c5.08 2.756 12.437 2.573 18.602 3.51M45.08 36.155c1.064 3.46 2.89 5.346 2.93 9.32 1.72-1.788 2.895-3.845 1.912-7.379-.463-1.67-1.308-3.12-1.94-4.763-2.897-7.535 4.13-11.472 7.583-14.02 2.84-2.096 5.12-5.422 7.528-10.403-3.586 2.812-5.288 5.26-9.405 8.393-5.524 4.204-11.387 9.806-8.607 18.852"/><path fill="#2b2a29" stroke="#2b2a29" stroke-miterlimit="22.926" stroke-width=".255" d="M81.469 35.962q.369.697.369 1.271a10.2 10.2 0 0 1-.779 3.65q-1.353 3.116-3.772 5.904a52 52 0 0 1-5.331 5.372q-.739.615-2.091 1.784t-1.518 1.332l-.246.205.246.37a38.5 38.5 0 0 1 5.29 8.815q.41.984.533 2.092.042.369-.04.82a.5.5 0 0 1-.308.41.5.5 0 0 1-.513-.041 1.45 1.45 0 0 1-.492-.37 12 12 0 0 1-.779-1.188q-2.583-4.592-6.479-8.817l-.369-.368q-.164 0-.246.245-1.763 3.773-2.583 6.89-.41 1.435-.328 2.296.04.123.39.574.348.45.553.697-.328.533-.984.533-.902-.042-1.395-.615a3.6 3.6 0 0 0-.82-.738q-.614-.411-.902-1.23a5 5 0 0 1-.287-1.64q-.04-1.56.656-3.65.738-2.337 2.338-5.782.04-.123.492-1.025-.205-.575-.205-.615-.123-.45.246-.615.04-.04.123-.164l.082-.082q.286-.328.328-.328.287-.122.533-.656 2.214-4.716 3.731-10.21.329-1.108.451-2.338v-.246q-.328 0-.328.041-.574.123-.86.246a11.9 11.9 0 0 0-3.486 2.173q-.533.492-.78.944-.368.656.042 1.107.04.04.287.533-.123.245-.328.164a2.72 2.72 0 0 1-1.312-1.394 2.5 2.5 0 0 1-.082-1.887 4.6 4.6 0 0 1 .656-1.189q1.68-2.05 3.936-2.87a5.2 5.2 0 0 1 2.132-.37q1.272.042 1.928 1.067.285.369 1.025 1.804.327.657.369 1.64.04 1.23-.37 3.117-.49 2.42-1.968 6.397a.4.4 0 0 0-.082.143q-.04.103-.061.185a1 1 0 0 1-.062.164l.041.123q1.763-1.435 1.928-1.6a44.3 44.3 0 0 0 6.355-6.437q1.354-1.6 2.707-4.06.37-.697.82-2.132.04-.041.369-.943.533-.164.943.04zM81.1 50.027q.574-.246.902.205l.287.328-.123.492q-.205.655-.553 1.804-.35 1.148-.636 2.112l-.533 1.783q-.205.615-.41 1.805-.082.246-.082.86-.042.944.492 1.395.041 0 .246.287-.41.41-.984.082-1.681-.943-1.804-2.83a8.1 8.1 0 0 1 .164-2.583 15.9 15.9 0 0 1 1.804-4.51q.246-.41.656-.861.205-.205.574-.37Zm2.583-5.782q.493.45.123 1.23-.246.574-.45.984-.534 1.148-.493 1.845-.41.206-.656 0-.861-.779-.78-1.886a5 5 0 0 1 .165-1.066q.123-.574.574-1.025.328-.328.574-.41t.738.04q.165.247.205.288Zm-.246 6.807q0-.04.123-.656.451-.123.554-.082.102.04.349.328.368.45.368.984v.943q-.04.328-.061.676-.02.35-.061.759a7 7 0 0 0-.042.656l-.04.451q.122.082.246-.123.122-.204.286-.512a23 23 0 0 1 .615-1.087 10.8 10.8 0 0 1 1.272-1.763q.123-.165.615-.615.328-.328.943-.328.45 0 .615.328.04.081.164.246.656.82.451 1.763 0 .04-.082.656.165-.082.451-.533 1.066-1.6 2.255-2.542.657-.534 1.272-.574.656-.042.942.41.575.86.575.902.204.369.164.984-.083 1.353-.533 3.362a65 65 0 0 1-.451 1.886 61 61 0 0 0-.903 4.183 476 476 0 0 0-.41 2.665q-.164 1.313.082 2.133.697.82.739.902.204.287-.165.41-.573.287-1.107-.205-.942-.861-1.23-1.353a6 6 0 0 1-.45-1.067q-.657-2.05-.206-4.633.329-1.722 1.148-4.1.287-.903 1.025-3.158l.082-.37q-.123-.04-.287.124a14 14 0 0 0-1.845 2.665 33 33 0 0 0-.8 1.497q-.512 1.005-.737 1.456-.226.45-.636 1.107a.7.7 0 0 1-.697.328q-.205 0-.246-.082a29 29 0 0 1-.78-.738q-.122-.206-.04-.738.164-1.025.287-1.805.123-.532.328-1.517t.246-1.189v-.205q-.082-.041-.205.164-.697 1.107-1.066 1.722-.165.246-.534.902-.368.657-.573.985-.165.245-.698.984-.246.369-.615.492-.492.123-.82-.205l-.123-.123-.143-.144a1.3 1.3 0 0 1-.123-.143.4.4 0 0 0-.144-.123 1.07 1.07 0 0 1-.328-.78q0-.491.041-.82.123-.779.37-2.214l.327-1.927q.042-.328.123-.882.083-.553.123-.717Zm32.64-15.254q.452.492.287 1.189a33 33 0 0 1-.369 1.497 44 44 0 0 1-.574 1.845q-.41 1.251-.615 1.907-.82 2.789-.902 4.223-.041.41-.451.574a.74.74 0 0 1-.738-.164 9 9 0 0 0-.226-.205 7 7 0 0 1-.266-.246q-.615-.492-.779-1.312-.246-1.148-.082-2.788.287-2.79 1.271-4.962l.041-.205a24 24 0 0 0-2.871 2.87q-2.624 3.199-3.977 5.208-2.789 4.142-4.223 7.586-1.067 2.42-1.313 4.552-.204 1.845.205 3.362a1 1 0 0 0 .062.266q.061.184.102.267.123.45.615.615.042 0 .39.103.349.102.553.143 2.133.41 4.47.082a27 27 0 0 1 1.066-.205q.698-.123.984-.205.411-.04.861-.041.985.082 1.395 1.066-.041.492-.534.82a3.8 3.8 0 0 1-.819.41q-3.117 1.272-5.864 1.067-2.584-.205-4.183-1.6a2.7 2.7 0 0 0-.533-.369q-1.763-.943-2.46-3.116-.533-1.64-.37-3.609.205-2.624 1.6-5.781a29.5 29.5 0 0 1 3.773-6.48 67 67 0 0 1 5.822-6.724q1.148-1.148 2.871-2.337 1.188-.861 2.214-.984.697-.123 1.189-.082 1.107.081 1.845 1.066.041.082.144.225a4 4 0 0 0 .389.472Zm8.365-.78q.82 1.683.533 3.2a16.1 16.1 0 0 1-2.624 6.232q-1.681 2.378-4.019 4.756-.164.205-.512.575-.349.368-.636.656l-.533.533q-.369.37-.492.86-.697 3.2-.861 5.085l-.123 1.64.041.493q.492-.246.492-.287 1.559-1.026 2.502-2.256.45-.615 1.025-.492.492.534.164 1.312-.369.902-1.272 1.887-.327.369-1.476 1.517a2.5 2.5 0 0 1-.82.533q-.533.165-.984 0-.451-.164-.656-.533a2.5 2.5 0 0 0-.451-.492q-.451-.41-.615-1.148-.287-1.19-.082-2.83.451-3.814 1.968-8.242a66.5 66.5 0 0 1 4.306-9.84q.369-.657 1.476-2.297.41-.657 1.148-1.23.656-.533 1.681-.287.534.122.82.656Zm-1.476 2.092v-.45q-.205.122-.533.491-.615.738-1.312 1.927-.697 1.272-1.804 3.732-.943 2.01-1.846 4.633 0 .042-.164.656.41-.41.41-.45a45 45 0 0 0 2.625-3.691 18.2 18.2 0 0 0 2.624-6.848Zm-.246 20.544q0 .04-.287.204 0 .944.492 2.133l.246-.164q1.641-1.394 2.583-3.035.451-.779.698-1.517.163-.656.656-.902l.287-.123q.737.533.656 1.6-.083 1.189-.656 2.419a12.8 12.8 0 0 1-1.805 2.87q-.368.45-.902.779-.492.329-1.25.287-.759-.04-1.128-.492a1.5 1.5 0 0 0-.533-.328q-.943-.492-1.435-1.722a5.95 5.95 0 0 1-.328-2.789q.246-2.172 1.148-4.387.574-1.353 1.435-2.337.533-.615 1.148-.82.861-.247 1.394.287.246.286.492.45.903.82.656 2.297a4.5 4.5 0 0 1-.574 1.6 12.6 12.6 0 0 1-1.763 2.623q-.574.697-1.23 1.067Zm1.312-4.716q.329-.984.246-1.558-.533.45-.902 1.27-.656 1.56-.779 3.035.902-1.148 1.435-2.747Zm12.015-4.593q.369-.41.902-.246.164.246.287.533a941 941 0 0 1-1.476 4.634l-.595 2.01q-.39 1.311-.595 1.967-.246.78-.943 2.953a2.26 2.26 0 0 1-.615.943q-.41.369-.861.328-.287-.04-.41-.123-.205-.205-.779-.328a1.13 1.13 0 0 1-.861-.697 11 11 0 0 1-.287-1.025q-.205-1.148-.287-3.404a46 46 0 0 0-.246-3.157q0-.082-.328-1.927 0-.041-.082-.533.328-.165.471-.164.144 0 .308.205.246.286.451.697.532 1.107 1.23 3.403.04.082.533 1.968.042.123.103.349t.061.307q.164-.204.369-.902a43 43 0 0 1 1.64-4.346q.738-1.641 1.436-2.706a5.4 5.4 0 0 1 .574-.739Zm2.911 9.309q0 .04-.287.204 0 .944.492 2.133l.246-.164q1.641-1.394 2.583-3.035.452-.779.697-1.517.165-.656.657-.902l.287-.123q.737.533.656 1.6-.083 1.189-.656 2.419a12.8 12.8 0 0 1-1.805 2.87q-.369.45-.902.779-.492.329-1.25.287-.759-.04-1.128-.492a1.5 1.5 0 0 0-.533-.328q-.943-.492-1.435-1.722a5.95 5.95 0 0 1-.328-2.789q.245-2.172 1.148-4.387.574-1.353 1.435-2.337.533-.615 1.148-.82.861-.247 1.394.287.246.286.492.45.902.82.657 2.297a4.5 4.5 0 0 1-.575 1.6 12.6 12.6 0 0 1-1.763 2.623q-.575.697-1.23 1.067Zm1.312-4.716q.328-.984.246-1.558-.533.45-.902 1.27-.656 1.56-.779 3.035.902-1.148 1.435-2.747Zm6.233-1.271.082-.287q-.164-.165-.205-.164-.574-.575-.082-1.19.286-.368.615-.574.532-.327.861-.287t.779.452q0 .04.041.082l.082.082q.574.369.451 1.312 0 .04-.123.779.369-.328.369-.37.615-.737 1.189-1.147.615-.452 1.067-.287.04 0 .533-.041.45.368.451.41.41.246.328.82a37 37 0 0 1-.144.779q-.102.533-.143.82-.123.574-.123 1.558.04.861.574 1.312l.205.287q-.288.37-.738.164-1.435-.697-1.846-1.804a5 5 0 0 1-.246-1.6v-.655q-.123 0-.246.205-.656 1.353-.738 1.6-.984 2.377-1.353 3.033-.123.246-.205.533l-.369 1.477q-.246.983-.328 1.394-.164.656 0 1.025a.53.53 0 0 1-.451.328.94.94 0 0 1-.492-.123 17 17 0 0 0-.41-.287q-.615-.246-.82-1.025a3.3 3.3 0 0 1-.123-.861q-.165-2.091.451-4.06.164-.492 1.107-3.69Z"/></svg>